<?xml version="1.0" encoding="utf-8"?>
<!-- Generator: Adobe Illustrator 20.1.0, SVG Export Plug-In . SVG Version: 6.00 Build 0)  -->
<svg version="1.1" id="carnival" xmlns="http://www.w3.org/2000/svg" xmlns:xlink="http://www.w3.org/1999/xlink" x="0px" y="0px"
	 viewBox="0 0 200 200" style="enable-background:new 0 0 200 200;" xml:space="preserve">
<style type="text/css">
	.st0{fill:#999999;}
	.st1{fill:#444444;}
</style>
<path class="st0" d="M184.8,168.7c-44.1,9.5-79.9,5.1-79.9,5.1l-4.5-47l-5.2,47c-73.6,3-79.9-5.7-79.9-5.7
	c27.6-31.5,26.5-65.2,26.5-65.2c-3.4-2.2-2.6-7.6-2.6-7.6c32.3-7.9,56.6-42.9,60.6-49l0.2-0.6V28.1c-1-0.3-1.4-0.8-1.4-1.5
	c0-0.9,0.8-1.7,1.7-1.7c0.9,0,1.4,0.7,1.4,1.7c0,0.7-0.8,1.3-1.8,1.5v17.6l0.5,0.6c25.4,40.3,60.6,49,60.6,49c0,7.7-2.9,7.2-2.9,7.2
	C158.2,140.2,184.8,168.7,184.8,168.7z"/>
<path class="st1" d="M99.8,46.3c0,0,0.8,34.5-7.1,43.7c0,0,6.2-1.3,14.4,0C107.1,90,100.7,80.8,99.8,46.3z"/>
<path class="st1" d="M100.2,46.3c0,0,3.7,33.6,35.1,45.3c0,0-7.3-1.2-13.3-1.2C122,90.3,104,92.5,100.2,46.3z"/>
<path class="st1" d="M100.2,46.3c0,0,12.3,34.9,46.3,45.8l14.4,3.3C160.9,95.3,129.6,87.7,100.2,46.3z"/>
<path class="st1" d="M99.8,46.3c0,0-3.7,33.6-35.1,45.3c0,0,7.3-1.2,13.3-1.2C78,90.3,96,92.5,99.8,46.3z"/>
<path class="st1" d="M99.8,46.3c0,0-12.3,34.9-46.3,45.8l-14.4,3.3C39.2,95.3,70.5,87.7,99.8,46.3z"/>
<path class="st1" d="M44.6,94.1c0,0,0.6,3.6,1.5,4.5c0,0,7.2,29.6-28.2,71l6.5,1.9c0,0,28.6-37.8,27.5-72.9c0,0,3,0,1.7-6.5
	L44.6,94.1z"/>
<path class="st1" d="M155.4,94.1c0,0-0.6,3.6-1.5,4.5c0,0-7.5,29.3,28,70.7l-6.9,1.3c0,0-28-36.9-26.9-72c0,0-3,0-1.7-6.5
	L155.4,94.1z"/>
<path class="st1" d="M62.3,91.6c0,0-4.2,49.5-26.5,81.6l13.2,0.9c0,0,24.4-47.2,22.9-83.4L62.3,91.6z"/>
<path class="st1" d="M137.5,91c0,0,4.1,49.3,26.4,81.3l-13.1,1.4c0,0-24.4-47.5-23-83.7L137.5,91z"/>
<path class="st1" d="M82.3,90c0,0,1,43.3-13,84.4l17-0.3c0,0,6.8-20,6.5-84L82.3,90L82.3,90z"/>
<path class="st1" d="M118.1,89c0,0-1,44.8,13,85.9l-16.9-0.3c0,0-7-22.6-6.6-85.6C107.6,89,118.1,89,118.1,89z"/>
<polygon class="st1" points="118.5,33.1 99.9,39.9 99.9,29.8 "/>
</svg>
