<?xml version="1.0" encoding="utf-8"?>
<!-- Generator: Adobe Illustrator 20.1.0, SVG Export Plug-In . SVG Version: 6.00 Build 0)  -->
<svg version="1.1" id="contest" xmlns="http://www.w3.org/2000/svg" xmlns:xlink="http://www.w3.org/1999/xlink" x="0px" y="0px"
	 viewBox="0 0 200 200" style="enable-background:new 0 0 200 200;" xml:space="preserve">
<style type="text/css">
	.st0{fill:#444444;}
	.st1{fill:#777777;}
	.st2{fill:#999999;}
	.st3{fill:#333333;}
	.st4{fill:#3A3A3A;}
	.st5{fill:#FCC200;}
	.st6{fill:#191917;}
</style>
<path class="st0" d="M168.7,27H140v-2h-40v150h35v-10h-7v-36h-8.3l-8.8-39h4.5c5.3-2,0.2-7,0.2-7h-2.9c3.9-3,6.8-5.6,6.8-5.6
	C154.8,79.6,168.7,27,168.7,27z M140.6,33h20.3c0,0-9.4,38.2-36.2,39.5C124.7,72.5,138,51,140.6,33z"/>
<path class="st1" d="M59,25v2H31.3c0,0,13.9,52.6,49.2,50.4c0,0,2.9,2.6,6.8,5.6h-2.9c0,0-5.1,5,0.2,7h4.5l-8.8,39H73v36h-7v10h34
	V25H59z M38.9,33h20.3C61.8,51,75,72.5,75,72.5C48.2,71.2,38.9,33,38.9,33z"/>
<path class="st2" d="M64.1,25h14c0,0-1.6,28,18.7,60.4L91.9,133h-9.1l9.9-44.3c0,0-10.9,2-4.2-4C88.6,84.7,68.8,66,64.1,25z"/>
<rect x="64.7" y="165.6" class="st3" width="70.6" height="9.4"/>
<rect x="86.7" y="138" class="st2" width="26.2" height="18.1"/>
<rect x="99.8" y="141.8" class="st4" width="9.1" height="10.3"/>
<polygon class="st5" points="83.3,18.9 81,23.2 83.1,27.5 78.4,26.6 74.9,29.9 74.3,25.1 70,22.9 74.4,20.8 75.2,16.1 78.5,19.6 "/>
<circle class="st6" cx="76.7" cy="23" r="4.3"/>
</svg>
