<?xml version="1.0" encoding="utf-8"?>
<!-- Generator: Adobe Illustrator 20.1.0, SVG Export Plug-In . SVG Version: 6.00 Build 0)  -->
<svg version="1.1" id="Dance" xmlns="http://www.w3.org/2000/svg" xmlns:xlink="http://www.w3.org/1999/xlink" x="0px" y="0px"
	 viewBox="0 0 400 400" style="enable-background:new 0 0 400 400;" xml:space="preserve">
<style type="text/css">
	.st0{fill:#444444;}
	.st1{fill:#999999;}
</style>
<circle class="st0" cx="200" cy="200" r="25.3"/>
<g>
	<path id="back" class="st1" d="M207.8,139.8c0,0-2.7,1.1-10.7-7.8c0,0-19.4-5.3-12.7,20.4c0,0,2.5,2.4,3.6,0c0,0,1.1,1,1,2.2
		c0,0,1.2,0.8,2,0c0,0,0.7,1.3,2.8,0.7c0,0,0.5,0.9,1.6,0.6c0,0,2.1,0.9-1.1,6.4c0,0-2.5,7.9-2.5,10.1c0,0-18.2-4.2-25.1-0.7
		c0,0-6.2,3.1-4.3,37.2c0,0-4.3,7.7,3.8,4.7c0,0,1.2,0.8,0.5,4.3l-1.3-1.5l-0.2,3.3l-1.7,0.8l1,1l-0.2,3l1.8-0.8c0,0,0,4.8-3.3,11.3
		c0,0,1.5,7.2,7.5-1c0,0,10-15.3,12-19c0,0-1.8-1.5-3.5-2c0,0,0.2-2.7-1.3-3.2c0,0,3.2-3.7-0.7-5.7c0,0-1.2-14.5,1.8-16
		c0,0,14.3,7.8,15.3,7.7v4.3c0,0-6,12.5-7.1,28.5l2,5.5c0,0,4.9,6.2,8.4,7.7c0,0,3.2,5.8,8.5,12c0,0,1.7,3.2,6.4,6.3
		c0,0,2.3,4.3,5.7,0l1.2,1.9c0,0-5.8,5.1,0.8,4.7c0,0,0.3,3.2,1.8,0l3.5,2.3c0,0,0.2,2.2,2,1.2c0,0,0.7,1.5,3.2,1.5c0,0,1.5,3,3.8,3
		h2.8c0,0,1.3,0.6-1-3.9c0,0-6.8-15.1-7.5-20.9c0,0-1.8-3.8-4.3-0.5c0,0-1.3-3.1-4-3.3c0,0-3-3.8-7.4-5.5c0,0-6.5-12.2-11.2-14.1
		c0,0,6-17.5,8.9-21.6c0,0,7.7-3.3,8.5-15.3l7.5-1.5c0,0,1-18.3-1.2-22.8l2-0.5c0,0,1,2.5,4.7,0.5c0,0,6.7,0.5,6.8,1
		c0.2,0.5-0.2-0.5-0.2-0.5s0.2,2.5,6.8,2.3c0,0,2.3,3,2.1,4.4c0,0,3.1,1.7,0.8-4.2c0,0-0.1-3.2,8.5-2.9c0,0,2-1.8-0.5-2.2l-3.6,0.2
		c0,0-0.8,0-0.1-0.9l4-2.7c0,0,0.6-2.2-1.6-1.6l-3.8,2.7c0,0-0.7,0.2-0.5-0.5l2.9-2.9c0,0,0.8-1.6-1.4-1l-3.3,3.2l1.4-3.2
		c0,0-0.3-1.7-1.7-0.7c0,0-1,2-3.3,4.7c0,0-0.5,2.2-4.5,0.3l-5.4-2.6c0,0-2.3-4.6-3.5-4.7l-1.3,0.7l-5.9-0.7l4.3-2.2l8.6-0.2
		l1.9-1.9c0,0,6.9-1.8,10-1.4c0,0,5.3,4.8,7.3,7.7c0,0,4.4,1.4,1.6-3.7c0,0,12.9,1.3,11.8-4.7l-0.8-0.6c0,0-0.7,0.8-5.5,0.2l4-1.8
		c0,0,0.2-2.6-2-1.5c0,0-2.4,1.7-3.5,1.5l0.1-2.1c0,0-0.5-0.6-1.3,0.2c0,0-1.8,2.1-6.3,0.2c0,0-0.3-1.3-9.3-1.1c0,0-6.7,0.4-9.6-1.4
		l-2.4-1.7l-4-0.8l-1,0.7h-3.4l-0.8,1.9l-1.1-0.6l-6.6-0.7l-1.1-1.3l-4.1,0.1L207.8,139.8z"/>
	<path id="front" class="st0" d="M194.9,148.6l9.8-4.9c0,0,13.2-2,15.9,6.6c0,0,1.3,1.2,7.5,4.5c0,0,1.3,5.5,0,9.6l1.5,2.6
		c0,0-1.1,1.5-1.9,8.5l-1.7,6l-4.7,1.9c0,0-12.7-4.9-15.1-6.8c0,0,0.9,6-5.7,2.8c0,0,0.9,0.2-3.4,3c0,0-5.1,4.7-7.4,4.3
		c0,0,1.7,2.3,11.5-2.6c0,0,7.8-1.3,12.7,0.8c0,0,10.6,2.8-0.6,20.9c0,0,7.4,14.6,12.5,41.2l-1.1,2.9h1.3l-1.5,3.5
		c0,0,5.1,8.2,7.9,9.2c0,0,2.6,7.5-8.1,5.2l-17.2-11.2l-0.9-8.3l1.7-0.9l-0.8-4.5l-1.3-2.1c0,0-2.3-13.4-4-19.4c0,0,1.5-3.6-0.6-3.8
		c0,0-2.5,0.7-0.6,3.8c0,0-0.2,4.5-2.6,6.2c0,0-1.3,1.3-0.4,8.9c0,0,0,4.5-3,2.3c0,0,0.6,3.8-4.9-6.2c0,0,1.5-4-3-12.8l-0.8-5.3
		c0,0-0.6-1.9,5.9-1.3c0,0-7.4-2.1-9.1-4c0,0-6.4,0.8-10.8-1.3c0,0-4.5-2.1-6.8-8.3c0,0,0.8-4.9-0.9-8.3c0,0,3.2-19.4,5.3-26
		l2.5-7.5c0,0,1.5-3.8-3.2-4.7c0,0-2.1-3.4-11.3-4l-4.9-3.2c0,0,1.9-1.8-17.4-6.2c0,0-2-2.7-4-3.9c0,0,0-1.7,3.5,0
		c0,0,1-0.9-4.8-7.3c0,0,0-1.6,2.1-0.6l3,3.8l0.6-0.9l-2.7-4.1c0,0-0.6-3.3,1.7-1.2l2.1,3.7l-1-3.7c0,0,0.8-1.3,1.8-0.2
		c0,0,1.1,4,1.7,4.5c0,0,0.8-1.4,0.1-3.1c0,0,0.7-1.4,1.8,1.4c0,0,0.5,4,2.2,5.6c0,0,2,4.3,13,4l2-0.9l0.6-1.7h1.7l0.8,2.9l3.8-0.4
		l1.4,1.6h5.4l1,1.8l11.3,1C184.3,142,191.5,144.5,194.9,148.6z"/>
</g>
</svg>
