<?xml version="1.0" encoding="utf-8"?>
<!-- Generator: Adobe Illustrator 20.1.0, SVG Export Plug-In . SVG Version: 6.00 Build 0)  -->
<svg version="1.1" id="drama" xmlns="http://www.w3.org/2000/svg" xmlns:xlink="http://www.w3.org/1999/xlink" x="0px" y="0px"
	 viewBox="0 0 200 200" style="enable-background:new 0 0 200 200;" xml:space="preserve">
<style type="text/css">
	.st0{fill:#999999;}
	.st1{fill:#444444;}
</style>
<path id="light" class="st0" d="M143,55.2c0,0-49.4-21.4-46.9-12c0,0-43.8,85.9,4.5,115c0,0,48.3,17.1,88.8-73
	C189.4,85.2,198.6,80.6,143,55.2z M94.5,67.6c0,0,34.3,10.1,25,23.3c0,0-5.5,7.8-20.2-3.4C99.3,87.5,93.1,80.9,94.5,67.6z
	 M133.4,147c0,0-11.8-38.9-50-22.4c0,0,22.6-25.5,41.5-9.2C125,115.4,139.9,124.8,133.4,147z M150.5,111.2
	c-17.9-4.3-15.3-13.5-15.3-13.5c4.3-15.5,33.8,4.8,33.8,4.8C159.5,111.8,150.5,111.2,150.5,111.2z"/>
<path id="dark" class="st1" d="M108.7,43.5c3.8-9-48.1,5.2-48.1,5.2C2,66,10.4,71.9,10.4,71.9C37.8,166.8,88,156.7,88,156.7
	C139.9,134.8,108.7,43.5,108.7,43.5z M43.5,102.2c0,0-9.1-0.6-17.1-11.2c0,0,32.1-15.9,34.2,0C60.6,91,61.9,100.5,43.5,102.2z
	 M82,141.7c0,0-17,4.9-29.2-14.8c0,0,36.9,17.1,50-22.4C102.8,104.6,106.8,138.5,82,141.7z M97.5,86c-16.1,9-20.4,0.5-20.4,0.5
	C69.7,72.2,105.2,67,105.2,67C104.6,80.4,97.5,86,97.5,86z"/>
</svg>
