<svg id="Layer_1" data-name="Layer 1" xmlns="http://www.w3.org/2000/svg" viewBox="0 0 789.84 156.16"><defs><style>.cls-1{fill:#1a8ec8;}.cls-2,.cls-3{fill:#444545;}.cls-3,.cls-4{fill-rule:evenodd;}.cls-4{fill:#f4f4f4;}.cls-5{fill:#d61d7e;}.cls-6{fill:#f38599;stroke:#f38599;stroke-miterlimit:10;stroke-width:0.83px;}</style></defs><title>Chennaismile_Logo_Final</title><path class="cls-1" d="M89.09,156.46H76.42c-24.77,0-49.26-17.65-49.26-49.83S51.65,56.8,76.42,56.8H89.23v5.13H77.56c-20.93,0-44.13,14.24-44.13,44.7s23.21,44.7,44.13,44.7H89.09Z" transform="translate(-27.16 -56.8)"/><path class="cls-1" d="M149.88,156.46V116c0-14.09-9.82-23.35-21.64-23.35S106.6,101.93,106.6,116v40.43h-5.41V56.8h5.41V98.09h.28c4.7-6.69,12.53-10.53,21.35-10.53,15.09,0,27,11.1,27,27.76v41.14Z" transform="translate(-27.16 -56.8)"/><path class="cls-1" d="M182.63,132.26,226,102.93a27.59,27.59,0,0,0-21.78-10.25c-17.23,0-29.33,14.38-29.33,30.47a29.34,29.34,0,0,0,29.33,29.61c16.37,0,29.33-13.24,29.61-28.62h5.69c-.43,17.94-15.09,33.74-34.17,33.74-21.07,0-36.16-15.23-36.16-35,0-19.08,14.24-35.31,35-35.31a35.12,35.12,0,0,1,30,16.51L186,136.81Z" transform="translate(-27.16 -56.8)"/><path class="cls-1" d="M300.22,156.46V116c0-14.09-9.82-23.35-21.64-23.35s-21.64,9.25-21.64,23.35v40.43h-5.41V115.32c0-16.66,12-27.76,27-27.76s27,11.1,27,27.76v41.14Z" transform="translate(-27.16 -56.8)"/><path class="cls-1" d="M371.4,156.46V116c0-14.09-9.82-23.35-21.64-23.35s-21.64,9.25-21.64,23.35v40.43h-5.41V115.32c0-16.66,12-27.76,27-27.76s27,11.1,27,27.76v41.14Z" transform="translate(-27.16 -56.8)"/><path class="cls-1" d="M450.56,156.46V122.72c0-15.66-11.25-30-27.48-30-13.67,0-27.19,12.67-27.19,30s13.52,30,27.19,30c9,0,15.23-3.7,21.07-9.82v6.41c-4.13,3.42-10.68,8.54-21.07,8.54-18.37,0-32.89-14.81-32.89-35.16s14.52-35.16,32.89-35.16S456,102.36,456,122.72v33.74Z" transform="translate(-27.16 -56.8)"/><path class="cls-1" d="M480.32,65.63A4.27,4.27,0,1,1,476,69.9,4.19,4.19,0,0,1,480.32,65.63Zm-2.71,90.83V89H483v67.48Z" transform="translate(-27.16 -56.8)"/><path class="cls-2" d="M563.46,62.21h-33c-16.51,0-21.92,6.83-21.92,17.51,0,30.61,60.65,13.81,60.65,51.54,0,16.66-11.67,25.2-31,25.2H502.24v-5.41h35c16.23,0,25.63-6.69,25.63-18.93,0-33.74-60.65-14.52-60.65-53,0-15.23,11.67-22.35,25.91-22.35h35.31Z" transform="translate(-27.16 -56.8)"/><path class="cls-2" d="M624,156.46v-44.7c0-12.81-8.68-19.08-17.51-19.08s-17.51,6.26-17.51,19.08v44.7h-5.41v-44.7c0-15.66,10.25-24.2,22.92-24.2,10.68,0,17.23,4.84,20.07,13.24h.29c2.85-8.4,9.4-13.24,20.07-13.24,12.67,0,22.92,8.54,22.92,24.2v44.7h-5.41v-44.7c0-12.81-8.83-19.08-17.51-19.08s-17.51,6.26-17.51,19.08v44.7Z" transform="translate(-27.16 -56.8)"/><path class="cls-2" d="M693.86,65.63a4.27,4.27,0,1,1-4.27,4.27A4.19,4.19,0,0,1,693.86,65.63Zm-2.71,90.83V89h5.41v67.48Z" transform="translate(-27.16 -56.8)"/><path class="cls-2" d="M722.76,156.46V56.8h5.41v99.66Z" transform="translate(-27.16 -56.8)"/><path class="cls-2" d="M760.06,132.26l43.42-29.33A27.59,27.59,0,0,0,781.7,92.68c-17.23,0-29.33,14.38-29.33,30.47a29.34,29.34,0,0,0,29.33,29.61c16.37,0,29.33-13.24,29.61-28.62H817c-.43,17.94-15.09,33.74-34.17,33.74-21.07,0-36.16-15.23-36.16-35,0-19.08,14.24-35.31,35-35.31a35.12,35.12,0,0,1,30,16.51l-48.26,32.74Z" transform="translate(-27.16 -56.8)"/><path class="cls-3" d="M277,122.15c18.63-3.07,20.36,32.24,3.12,32.31C264.47,154.54,262,124.62,277,122.15Z" transform="translate(-27.16 -56.8)"/><path class="cls-4" d="M283,142.13c3.37-.55,3.68,5.82.56,5.84C280.69,148,280.25,142.58,283,142.13Z" transform="translate(-27.16 -56.8)"/><path class="cls-3" d="M349,122.15c18.63-3,18.18,31.92,1.56,32.31C335.39,154.82,333.24,124.69,349,122.15Z" transform="translate(-27.16 -56.8)"/><path class="cls-4" d="M353.6,142.13c3.37-.55,3.68,5.82.56,5.84C351.35,148,350.9,142.58,353.6,142.13Z" transform="translate(-27.16 -56.8)"/><path class="cls-5" d="M373.89,178" transform="translate(-27.16 -56.8)"/><path class="cls-6" d="M314.2,206.82A64.67,64.67,0,0,1,277.33,196l-1.84,1.85c9.78,7.83,21.84,14.74,38.46,14.67,17.19-.07,28.28-6.85,39-14.49l-1.85-1.84A69.9,69.9,0,0,1,314.2,206.82Z" transform="translate(-27.16 -56.8)"/><path class="cls-6" d="M240.8,169.84s5.76-9.52,6.72-10.9,1.38.27,1.1,1.1a12.71,12.71,0,0,0,1.48,10.79c7,9.13,16,18.4,27.23,25.2l-1.84,1.85-.23-.16c-10.4-7.32-18.32-16.5-26.78-25.81h0c-2.61-2.71-4.39-1.66-5.21-1.25C238.74,172.6,240.8,169.84,240.8,169.84Z" transform="translate(-27.16 -56.8)"/><path class="cls-6" d="M387.53,169.85s-5.81-9.49-6.78-10.87-1.38.28-1.1,1.1a12.71,12.71,0,0,1-1.43,10.8c-7,9.16-15.92,18.48-27.1,25.33l1.85,1.84.23-.16c10.36-7.38,18.24-16.6,26.65-25.95h0c2.6-2.72,4.38-1.68,5.2-1.28C389.6,172.6,387.53,169.85,387.53,169.85Z" transform="translate(-27.16 -56.8)"/></svg>