<?xml version="1.0" encoding="utf-8"?>
<!-- Generator: Adobe Illustrator 20.1.0, SVG Export Plug-In . SVG Version: 6.00 Build 0)  -->
<svg version="1.1" id="music" xmlns="http://www.w3.org/2000/svg" xmlns:xlink="http://www.w3.org/1999/xlink" x="0px" y="0px"
	 viewBox="0 0 200 200" style="enable-background:new 0 0 200 200;" xml:space="preserve">
<style type="text/css">
	.st0{fill:#999999;}
	.st1{fill:#444444;}
</style>
<path id="disc" class="st0" d="M101.7,63.8c-25.3,7.6-39.6,34-31.8,58.9s34.6,38.9,59.9,31.3s39.6-34,31.8-58.9
	C153.8,70.2,127,56.2,101.7,63.8z M82.6,118.6c0,0-5.1-11.6,0.1-26.7c0,0,2.3-3.4,2.5,0.9c0,0-4.5,14.8-0.1,25.1
	C85.1,117.9,85.4,122.2,82.6,118.6z M91.6,95.4c0,0-3.6,11.9-0.1,20.1c0,0,0.2,3.4-2,0.6c0,0-4.1-9.3,0.1-21.4
	C89.6,94.7,91.4,92,91.6,95.4z M121,126.1c-9.6,2.9-19.8-2.4-22.8-11.9c-2.9-9.5,2.5-19.5,12.1-22.4s19.8,2.4,22.8,11.9
	C136.1,113.2,130.7,123.2,121,126.1z M141.7,121c3.9-8.1,0.8-20.1,0.8-20.1c0.4-3.4,2.1-0.6,2.1-0.6c3.7,12.3-0.9,21.4-0.9,21.4
	C141.3,124.4,141.7,121,141.7,121z M150.5,124.5c-2.9,3.4-2.5-0.8-2.5-0.8c4.9-10.1,1-25.1,1-25.1c0.5-4.3,2.6-0.8,2.6-0.8
	C156.1,113.1,150.5,124.5,150.5,124.5z"/>
<path id="disc_1_" class="st0" d="M101.6,63.8c-25.3,7.6-39.6,34-31.8,58.9s34.6,38.9,59.9,31.3s39.6-34,31.8-58.9
	C153.7,70.2,126.9,56.2,101.6,63.8z M82.5,118.6c0,0-5.1-11.6,0.1-26.7c0,0,2.3-3.4,2.5,0.9c0,0-4.5,14.8-0.1,25.1
	C85,117.9,85.3,122.2,82.5,118.6z M91.5,95.4c0,0-3.6,11.9-0.1,20.1c0,0,0.2,3.4-2,0.6c0,0-4.1-9.3,0.1-21.4
	C89.5,94.7,91.3,92,91.5,95.4z M120.9,126.1c-9.6,2.9-19.8-2.4-22.8-11.9c-2.9-9.5,2.5-19.5,12.1-22.4s19.8,2.4,22.8,11.9
	C136,113.2,130.6,123.2,120.9,126.1z M141.6,121c3.9-8.1,0.8-20.1,0.8-20.1c0.4-3.4,2.1-0.6,2.1-0.6c3.7,12.3-0.9,21.4-0.9,21.4
	C141.2,124.4,141.6,121,141.6,121z M150.4,124.5c-2.9,3.4-2.5-0.8-2.5-0.8c4.9-10.1,1-25.1,1-25.1c0.5-4.3,2.6-0.8,2.6-0.8
	C156,113.1,150.4,124.5,150.4,124.5z"/>
<path id="top" class="st1" d="M107.9,110.7c-5.2-25.9-30.4-24.1-30.4-24.1l-1.8-13.9c35-35.3,6.7-47.1,6.7-47.1
	C50.8,18.7,64.9,67,64.9,67C33,86.3,36.4,109.2,36.4,109.2c4.6,38,43.8,35,43.8,35c7.4,27.5-2.1,20.8-2.1,20.8
	c-7.4,0-4.6-8.4-4.6-8.4c-1.5-9-9.2-1.8-9.2-1.8C60,175.3,79.7,175,79.7,175c21.2-0.3,9.8-34.1,9.8-34.1
	C110.9,133.1,107.9,110.7,107.9,110.7z M78.4,36.8c0,0,9.9,3.3-6.3,21.1C72.2,58,69.8,33.5,78.4,36.8z M49.6,112.6
	c0,0-6.1-15.7,17.8-32.6l2.1,9.4c0,0-12.9,3.3-13.5,18.7c0,0-1.2,10.9,13.5,14.2c0,0,6.8-3,2.3-8.7c0,0-9.7-1.5-5.7-9.7
	c0,0,0.1-2.5,5.7-3.8l6.2,30.7C78.1,130.7,58.1,134.9,49.6,112.6z M85.8,127.9L80,96.5c14.1,2,17.2,12.8,17.2,12.8
	C98.3,126.8,85.8,127.9,85.8,127.9z"/>
</svg>
