<?xml version="1.0" encoding="utf-8"?>
<!-- Generator: Adobe Illustrator 20.1.0, SVG Export Plug-In . SVG Version: 6.00 Build 0)  -->
<svg version="1.1" id="sports" xmlns="http://www.w3.org/2000/svg" xmlns:xlink="http://www.w3.org/1999/xlink" x="0px" y="0px"
	 viewBox="0 0 200 200" style="enable-background:new 0 0 200 200;" xml:space="preserve">
<style type="text/css">
	.st0{fill:#444444;}
	.st1{fill:#999999;}
	.st2{fill:#777777;}
	.st3{fill:none;stroke:#3A3A3A;stroke-miterlimit:10;}
</style>
<path class="st0" d="M120.9,77c0,0,24.5,8.5,36.8-6.2c0,0,4.4-1.7,4.4,2.1c0,0,5.9,13.1-20.6,17C141.5,89.8,121.7,88,120.9,77z"/>
<path class="st1" d="M27.4,98.7l35.1-6c0,0,33.2-11.1,48.7-26.5c0,0,8.5-2.8,9.8,10.8c0,0,19.1,20.3,39.7,1.8c0,0,2.6-1.5,1.5-5.9
	c0,0,7.2,9.5,7.7,37.3l5.2,12.4c0,0-1.5,12.1-49.4,8.8c0,0-2.6-3.1-37.3,1.8C88.2,133.1,10.7,133.1,27.4,98.7z"/>
<path class="st0" d="M27.4,98.7c0,0-14.6,28.2,62.5,24c1.8-0.1,3.6-0.1,5.3-0.7c4.2-1.3,14.9-3.8,36.8-5.7c0,0,34.6-0.5,38.1-5.5
	l4.9,11.7c0,0-1.3,13.9-46.4,9.8c0,0-2.6-3.6-37.3,1.8C91.3,134.1,10.3,134.3,27.4,98.7z"/>
<path class="st2" d="M54.1,94.1c0,0,27.9,23.8,66.8-17.1c0,0,0-13.1-9.8-10.8C111.1,66.1,78.4,90.9,54.1,94.1z"/>
<path class="st3" d="M27.4,98.7c0,0,7.8,18.2,53.4,7.6c0,0,15.7-7,46.9-3.3c0,0,29.9,1.9,40.6-11.8"/>
</svg>
